<svg id="_x31__px" enable-background="new 0 0 24 24" height="512" viewBox="0 0 24 24" width="512"
  xmlns="http://www.w3.org/2000/svg">
  <g>
    <path
      d="m16.5 20c-.276 0-.5-.224-.5-.5 0-1.92.697-3.758 1.964-5.175 1.313-1.468 2.036-3.359 2.036-5.325 0-4.411-3.589-8-8-8s-8 3.589-8 8c0 1.966.723 3.857 2.036 5.325 1.267 1.417 1.964 3.255 1.964 5.175 0 .276-.224.5-.5.5s-.5-.224-.5-.5c0-1.674-.607-3.275-1.71-4.508-1.477-1.652-2.29-3.78-2.29-5.992 0-4.962 4.037-9 9-9s9 4.038 9 9c0 2.212-.813 4.34-2.29 5.992-1.103 1.233-1.71 2.834-1.71 4.508 0 .276-.224.5-.5.5z" />
  </g>
  <g>
    <path
      d="m14.5 24h-5c-1.379 0-2.5-1.122-2.5-2.5v-2c0-.276.224-.5.5-.5h9c.276 0 .5.224.5.5v2c0 1.378-1.121 2.5-2.5 2.5zm-6.5-4v1.5c0 .827.673 1.5 1.5 1.5h5c.827 0 1.5-.673 1.5-1.5v-1.5z" />
  </g>
  <g>
    <path d="m12 19.29c-.276 0-.5-.224-.5-.5v-12.29c0-.276.224-.5.5-.5s.5.224.5.5v12.29c0 .276-.224.5-.5.5z" />
  </g>
  <g>
    <path
      d="m12 7c-1.103 0-2-.897-2-2s.897-2 2-2 2 .897 2 2-.897 2-2 2zm0-3c-.552 0-1 .449-1 1s.448 1 1 1 1-.449 1-1-.448-1-1-1z" />
  </g>
  <g>
    <path
      d="m8 12c-1.103 0-2-.897-2-2s.897-2 2-2 2 .897 2 2-.897 2-2 2zm0-3c-.552 0-1 .449-1 1s.448 1 1 1 1-.449 1-1-.448-1-1-1z" />
  </g>
  <g>
    <path
      d="m16 12c-1.103 0-2-.897-2-2s.897-2 2-2 2 .897 2 2-.897 2-2 2zm0-3c-.552 0-1 .449-1 1s.448 1 1 1 1-.449 1-1-.448-1-1-1z" />
  </g>
  <g>
    <path
      d="m12 17c-.174 0-.335-.09-.426-.238l-3.22-5.23c-.145-.235-.071-.543.164-.688.232-.144.542-.073.688.164l2.794 4.538 2.794-4.539c.146-.236.456-.308.688-.164.235.145.309.453.164.688l-3.22 5.23c-.091.149-.252.239-.426.239z" />
  </g>
</svg>